HIERARCHY
ROOT Hips
{
	OFFSET 0.000000 0.000000 0.000000
	CHANNELS 6 Xposition Yposition Zposition Zrotation Yrotation Xrotation 
	JOINT LHipJoint
	{
		OFFSET 0.000000 0.000000 0.000000
		CHANNELS 3 Zrotation Yrotation Xrotation
		JOINT LeftUpLeg
		{
			OFFSET 1.363060 -1.794630 0.839290
			CHANNELS 3 Zrotation Yrotation Xrotation
			JOINT LeftLeg
			{
				OFFSET 2.448110 -6.726130 0.000000
				CHANNELS 3 Zrotation Yrotation Xrotation
				JOINT LeftFoot
				{
					OFFSET 2.562200 -7.039590 0.000000
					CHANNELS 3 Zrotation Yrotation Xrotation
					JOINT LeftToeBase
					{
						OFFSET 0.157640 -0.433110 2.322550
						CHANNELS 3 Zrotation Yrotation Xrotation
						End Site
						{
							OFFSET 0.000000 0.000000 0.000000
						}
					}
				}
			}
		}
	}
	JOINT RHipJoint
	{
		OFFSET 0.000000 0.000000 0.000000
		CHANNELS 3 Zrotation Yrotation Xrotation
		JOINT RightUpLeg
		{
			OFFSET -1.305520 -1.794630 0.839290
			CHANNELS 3 Zrotation Yrotation Xrotation
			JOINT RightLeg
			{
				OFFSET -2.542530 -6.985550 0.000000
				CHANNELS 3 Zrotation Yrotation Xrotation
				JOINT RightFoot
				{
					OFFSET -2.568260 -7.056230 0.000000
					CHANNELS 3 Zrotation Yrotation Xrotation
					JOINT RightToeBase
					{
						OFFSET -0.164730 -0.452590 2.363150
						CHANNELS 3 Zrotation Yrotation Xrotation
						End Site
						{
							OFFSET 0.000000 0.000000 0.000000
						}
					}
				}
			}
		}
	}
	JOINT LowerBack
	{
		OFFSET 0.000000 0.000000 0.000000
		CHANNELS 3 Zrotation Yrotation Xrotation
		JOINT Spine
		{
			OFFSET 0.028270 2.035590 -0.193380
			CHANNELS 3 Zrotation Yrotation Xrotation
			JOINT Spine1
			{
				OFFSET 0.056720 2.048850 -0.042750
				CHANNELS 3 Zrotation Yrotation Xrotation
				JOINT Neck
				{
					OFFSET 0.000000 0.000000 0.000000
					CHANNELS 3 Zrotation Yrotation Xrotation
					JOINT Neck1
					{
						OFFSET -0.054170 1.746240 0.172020
						CHANNELS 3 Zrotation Yrotation Xrotation
						JOINT Head
						{
							OFFSET 0.104070 1.761360 -0.123970
							CHANNELS 3 Zrotation Yrotation Xrotation
							End Site
							{
								OFFSET 0.000000 0.000000 0.000000
							}
						}
					}
				}
				JOINT LeftShoulder
				{
					OFFSET 0.000000 0.000000 0.000000
					CHANNELS 3 Zrotation Yrotation Xrotation
					JOINT LeftArm
					{
						OFFSET 3.362410 1.200890 -0.311210
						CHANNELS 3 Zrotation Yrotation Xrotation
						JOINT LeftForeArm
						{
							OFFSET 4.983000 -0.000000 -0.000000
							CHANNELS 3 Zrotation Yrotation Xrotation
							JOINT LeftHand
							{
								OFFSET 3.483560 -0.000000 -0.000000
								CHANNELS 3 Zrotation Yrotation Xrotation
								JOINT LeftFingerBase
								{
									OFFSET 0.000000 0.000000 0.000000
									CHANNELS 3 Zrotation Yrotation Xrotation
									JOINT LeftHandIndex1
									{
										OFFSET 0.715260 -0.000000 -0.000000
										CHANNELS 3 Zrotation Yrotation Xrotation
										End Site
										{
											OFFSET 0.000000 0.000000 0.000000
										}
									}
								}
								JOINT LThumb
								{
									OFFSET 0.000000 0.000000 0.000000
									CHANNELS 3 Zrotation Yrotation Xrotation
									End Site
									{
										OFFSET 0.000000 0.000000 0.000000
									}
								}
							}
						}
					}
				}
				JOINT RightShoulder
				{
					OFFSET 0.000000 0.000000 0.000000
					CHANNELS 3 Zrotation Yrotation Xrotation
					JOINT RightArm
					{
						OFFSET -3.136600 1.374050 -0.404650
						CHANNELS 3 Zrotation Yrotation Xrotation
						JOINT RightForeArm
						{
							OFFSET -5.241900 -0.000000 -0.000000
							CHANNELS 3 Zrotation Yrotation Xrotation
							JOINT RightHand
							{
								OFFSET -3.444170 -0.000000 -0.000000
								CHANNELS 3 Zrotation Yrotation Xrotation
								JOINT RightFingerBase
								{
									OFFSET 0.000000 0.000000 0.000000
									CHANNELS 3 Zrotation Yrotation Xrotation
									JOINT RightHandIndex1
									{
										OFFSET -0.622530 -0.000000 -0.000000
										CHANNELS 3 Zrotation Yrotation Xrotation
										End Site
										{
											OFFSET 0.000000 0.000000 0.000000
										}
									}
								}
								JOINT RThumb
								{
									OFFSET 0.000000 0.000000 0.000000
									CHANNELS 3 Zrotation Yrotation Xrotation
									End Site
									{
										OFFSET 0.000000 0.000000 0.000000
									}
								}
							}
						}
					}
				}
			}
		}
	}
}
MOTION
Frames: 12
Frame Time: 0.008333
-0.322526 15.865759 2.135841 179.867170 -7.699779 -158.025048 6.762729 -0.086795 0.009088 -0.847401 -27.973716 -69.658900 16.496372 24.138346 79.249189 -2.284256 13.266588 -17.675202 0.169300 -2.650900 -7.308400 -6.649348 -0.238876 0.502697 37.404170 23.617033 -22.150407 -6.721435 -17.892992 52.951519 -0.452016 -10.934228 -32.774304 -0.817300 -5.768800 16.115000 5.162229 -0.660670 0.252263 0.591322 -1.036564 -6.311906 -5.070221 -0.755683 -3.275261 -4.361513 -0.660547 -26.570392 4.609312 -0.274339 10.967759 0.553300 -0.662500 13.692200 -9.338027 -9.612138 2.589940 -72.967838 23.822651 11.759607 26.191341 -32.681808 -7.513189 -1.677872 -0.567411 -54.225158 -2.164467 20.342349 -0.238200 -7.125000 0.000000 0.000000 -27.433900 47.267200 -1.655000 10.218129 10.476437 4.371332 65.474248 3.141695 33.576488 -53.822122 47.729627 -25.494454 -1.887882 1.913700 -42.561269 -0.683686 6.573517 -0.039900 7.125000 0.000000 0.000000 19.435000 -25.966500 9.488300 
-0.312817 15.992081 1.834333 179.336719 -7.754039 -157.575541 6.673132 -0.111590 -0.010582 0.545076 -29.477338 -71.389439 15.570078 24.121273 76.645894 -2.191680 12.298996 -15.596617 0.150600 -2.500900 -6.892100 -6.432806 -0.241596 0.517179 37.233758 23.949512 -20.040008 -6.009329 -17.225198 50.594888 0.094990 -11.724413 -31.399371 -0.924500 -6.125500 17.149000 4.300647 -0.270586 -0.431380 0.472955 -0.649122 -6.493543 -4.983921 -0.614692 -3.660003 -4.422130 -1.060782 -25.937566 4.911261 -0.964499 11.259639 0.649800 -0.940000 13.755500 -9.504898 -9.438993 2.581566 -73.702519 27.312269 12.720132 28.527331 -34.886619 -8.791602 -1.491571 -1.064892 -56.374306 -5.086504 18.644537 -1.045900 -7.125000 0.000000 0.000000 -29.096600 45.783700 -0.615500 10.364153 10.435109 4.431978 64.738706 3.170070 33.867308 -58.923871 49.328500 -30.051599 -1.915826 2.201243 -46.703709 0.834860 6.508733 0.034400 7.125000 0.000000 0.000000 20.298300 -26.214300 9.837300 
-0.302255 16.132379 1.522903 177.850980 -7.350787 -157.432774 6.597084 -0.191183 -0.004881 0.256845 -30.829502 -72.197913 14.492022 24.003031 73.715721 -2.027146 11.115741 -13.253977 0.121600 -2.248200 -6.192100 -6.148202 -0.250270 0.521224 36.133129 24.153041 -17.354242 -5.375415 -16.519922 48.380765 0.712629 -12.919579 -30.345372 -0.947500 -6.199100 17.363100 2.207436 0.158355 -0.455635 0.242004 -0.245052 -6.706265 -4.733832 -0.448441 -4.502895 -4.406979 -1.527502 -25.109693 5.163647 -1.826653 11.527306 0.655500 -1.290800 13.794700 -9.709716 -9.265540 2.587224 -74.051794 31.103535 14.103390 30.993617 -37.071375 -10.287671 -1.372161 -1.451560 -58.402575 -7.250400 17.890033 -1.602500 -7.125000 0.000000 0.000000 -30.490400 45.124900 -0.104000 10.509764 10.435210 4.479331 64.126465 2.683915 34.000652 -64.483546 50.605909 -35.254504 -2.039433 2.477586 -50.666046 1.910968 7.504917 0.097900 7.125000 0.000000 0.000000 20.699300 -25.496900 10.433400 
-0.298841 16.275772 1.202831 177.050933 -7.362731 -157.337583 6.496646 -0.263987 -0.062011 0.609915 -32.041129 -72.965374 13.386486 23.827760 70.681707 -1.858626 10.016802 -10.781473 0.182500 -2.751900 -7.588700 -5.909657 -0.271799 0.506415 35.767188 24.119180 -14.853918 -4.803510 -15.827800 46.278895 1.202583 -13.660901 -29.137243 -0.944300 -6.189100 17.334100 0.907259 0.521340 -1.082168 0.112077 0.139973 -6.746314 -4.439318 -0.241885 -4.381056 -4.577568 -2.131424 -24.604634 5.564539 -2.713589 11.565247 0.817300 -1.632000 13.708700 -9.864202 -9.004988 2.612445 -74.377768 34.090179 15.323307 33.499225 -39.247714 -11.960835 -1.293601 -1.748159 -60.350992 -8.842473 17.627258 -2.016500 -7.125000 0.000000 0.000000 -31.608300 44.880200 0.104300 10.629327 10.331583 4.564965 63.288823 2.730848 33.694435 -69.632414 51.513630 -40.527805 -1.840289 2.888953 -53.872287 5.120033 6.019439 0.191300 7.125000 0.000000 0.000000 22.820700 -26.863800 10.874000 
-0.251897 16.413082 0.893428 177.081969 -5.736412 -156.544233 6.370953 -0.342773 -0.235801 1.372327 -31.106586 -74.232086 12.266582 23.539548 67.567291 -1.622201 8.834663 -8.405603 0.352200 -3.812800 -10.550600 -5.776089 -0.257658 0.541519 35.396453 25.505670 -13.259314 -4.319993 -15.252903 44.332572 1.711985 -13.833579 -26.561914 -0.871800 -5.953000 16.648000 -0.822783 1.414581 -2.999218 0.045652 1.262181 -6.677741 -3.364789 0.384815 -3.146572 -4.967144 -2.759452 -24.862189 6.056659 -3.413325 11.602616 1.064500 -1.878700 13.765800 -9.915423 -8.694182 2.606898 -74.840635 35.947450 16.089149 35.926122 -41.366621 -13.743433 -1.219838 -1.995160 -61.741127 -10.216131 17.230906 -2.350500 -7.125000 0.000000 0.000000 -32.479800 44.527600 0.426000 10.756927 10.148328 4.691576 62.030140 3.729930 33.341562 -74.229383 52.053734 -45.379776 -1.780133 3.198649 -57.141018 7.101514 5.984417 0.258500 7.125000 0.000000 0.000000 23.904600 -26.892000 11.468400 
-0.239947 16.578026 0.581251 176.177758 -4.883444 -156.681322 6.248196 -0.467874 -0.313533 0.551930 -31.344881 -74.134261 11.020187 23.146029 64.155861 -1.519520 8.193660 -5.688135 0.564300 -4.811400 -13.371600 -5.537140 -0.296770 0.521703 34.254925 24.841138 -11.358032 -3.967284 -14.666051 42.690908 1.908401 -13.131221 -23.722413 -0.893900 -6.026200 16.860400 -2.614457 1.968141 -3.286250 -0.088390 1.942490 -6.699632 -2.720673 0.767692 -3.089135 -5.349218 -3.314898 -24.797756 6.446337 -4.134387 11.845815 1.264700 -2.176800 13.988700 -10.036850 -8.468491 2.594480 -75.385575 38.349788 16.841060 38.409063 -43.206206 -15.585697 -1.088237 -2.323275 -62.812649 -12.245988 16.083464 -2.752200 -7.125000 0.000000 0.000000 -33.506600 43.554300 1.361000 10.871243 10.099021 4.800033 60.814162 3.842284 33.235679 -78.810720 52.411124 -50.331203 -1.707423 3.413572 -60.860736 8.209698 5.556852 0.253700 7.125000 0.000000 0.000000 24.457100 -27.192100 11.592600 
-0.200045 16.745851 0.235466 174.920233 -3.849491 -157.713658 6.126529 -0.651942 -0.369207 -1.512080 -31.359378 -72.462565 9.751583 22.605784 60.614991 -1.591152 8.302646 -2.238872 0.871800 -5.953000 -16.648200 -5.287357 -0.345452 0.537181 33.409536 24.601411 -8.236064 -3.698055 -14.062456 41.286310 2.310812 -13.316290 -21.276197 -0.965000 -6.254600 17.525000 -5.129255 2.868856 -2.544904 -0.359308 2.975115 -6.776481 -2.233240 1.335687 -4.023234 -5.319885 -4.027421 -23.569375 6.690185 -5.440252 11.995458 1.214600 -2.723900 13.899100 -10.203162 -8.231750 2.633508 -74.607075 41.582787 18.637175 40.921942 -44.824381 -17.549492 -0.921553 -2.753190 -63.598852 -15.135907 14.364509 -3.221500 -7.125000 0.000000 0.000000 -34.885100 42.103400 2.890200 11.003005 10.068476 4.860565 60.477043 2.441205 32.285929 -83.649993 52.779385 -55.699353 -1.637026 3.665266 -64.557456 9.603781 5.596729 0.310400 7.125000 0.000000 0.000000 25.081200 -27.029100 12.058600 
-0.157475 16.883375 -0.066468 174.336175 -2.584345 -157.716266 5.986911 -0.782977 -0.457950 -2.440203 -30.591487 -72.303142 8.570013 22.035393 57.182866 -1.609019 8.574367 1.665506 1.133900 -6.762800 -19.014400 -5.058745 -0.423374 0.544156 31.679035 22.244055 -8.188392 -3.560059 -13.679748 40.195842 2.176619 -11.094446 -15.002851 -0.891900 -6.019400 16.840700 -7.025631 3.823828 -2.719414 -0.549881 4.086435 -6.895847 -1.688853 1.929839 -4.633949 -5.518332 -4.725066 -22.862575 6.911254 -6.520540 11.984679 1.227700 -3.183900 13.817000 -10.330638 -8.038922 2.642029 -74.256644 44.124888 19.809260 43.501638 -46.359292 -19.668213 -0.821221 -3.151456 -64.297292 -17.967504 13.027099 -3.642400 -7.125000 0.000000 0.000000 -36.300700 40.938000 4.298000 11.150917 10.026932 4.936032 59.730112 1.685720 31.195563 -87.952385 53.004873 -60.542112 -1.537822 3.933377 -68.691069 11.323003 5.345254 0.355900 7.125000 0.000000 0.000000 25.939900 -27.036200 12.559700 
-0.132296 17.027407 -0.365522 174.250536 -1.718055 -158.005720 5.853722 -0.928284 -0.592333 -3.161857 -29.854128 -71.643868 7.451042 21.412013 53.930849 -1.393448 8.302937 4.924156 0.717300 -5.412300 -15.088400 -4.916053 -0.454119 0.581074 31.243880 21.739580 -6.911883 -3.419556 -13.318516 39.257753 2.503909 -11.215289 -10.971065 -0.691300 -5.315500 14.810500 -8.002330 4.609135 -2.858033 -0.675149 5.056082 -6.933402 -1.397060 2.452028 -4.882943 -5.700869 -5.257806 -22.430055 7.169002 -7.348664 12.101978 1.313400 -3.532900 13.878600 -10.435081 -7.817989 2.651706 -74.080159 46.389541 20.599223 46.533980 -47.979928 -22.232235 -0.822180 -3.463201 -65.560381 -20.071342 12.783659 -4.077900 -7.125000 0.000000 0.000000 -37.584400 40.633000 4.857700 11.278091 9.959194 5.019979 58.786876 1.295731 30.263244 -91.682337 53.146187 -64.742405 -1.399040 4.204890 -72.920449 13.288952 4.609020 0.342700 7.125000 0.000000 0.000000 27.050600 -27.379300 12.979700 
-0.120987 17.179335 -0.677593 174.166206 -0.232295 -158.772629 5.710718 -1.075490 -0.732183 -4.550586 -28.656546 -70.103314 6.490231 20.755772 51.083758 -1.126344 8.050705 8.200900 0.836500 -5.834300 -16.304500 -4.754196 -0.494445 0.585617 30.364300 20.691956 -5.521918 -3.366626 -13.008330 38.592260 2.485650 -10.546235 -5.975918 -0.676900 -5.260800 14.653900 -8.982865 5.598998 -2.939257 -0.843232 6.372876 -6.857007 -1.184766 3.158983 -4.735271 -5.902218 -5.832460 -22.266084 7.558135 -8.197387 12.270834 1.503800 -3.868600 14.070400 -10.542357 -7.548407 2.661462 -73.565018 48.264134 21.514243 49.618524 -49.465981 -24.964278 -0.904378 -3.744120 -67.160185 -22.042829 13.197433 -4.651000 -7.125000 0.000000 0.000000 -39.010000 40.796700 4.929300 11.356584 9.867645 5.115001 57.797566 0.894592 29.626019 -94.853233 53.234496 -68.149318 -1.465653 4.446335 -77.223643 14.379238 5.076550 0.484900 7.125000 0.000000 0.000000 27.358900 -26.764600 13.623600 
-0.101996 17.300749 -0.962457 174.667421 0.525062 -159.012122 5.584690 -1.180826 -0.862167 -4.844646 -27.559323 -69.447898 5.669049 20.180697 48.664224 -0.643543 7.169521 11.354896 1.059900 -6.545600 -18.376000 -4.621710 -0.525255 0.615170 30.044110 19.120853 -5.222004 -3.305218 -12.778667 37.960017 2.337214 -9.951962 0.053316 -0.639700 -5.117100 14.242900 -9.091497 6.430099 -3.025466 -0.972967 7.463025 -6.899253 -1.316918 3.706513 -4.866414 -5.996741 -6.450424 -22.496873 7.868404 -9.153891 12.581237 1.621200 -4.229100 14.523300 -10.665506 -7.326646 2.639858 -72.852149 49.996392 22.544508 52.615816 -50.660779 -27.644280 -0.964134 -4.013811 -68.629829 -23.871521 13.385968 -5.148400 -7.125000 0.000000 0.000000 -40.219700 40.785600 5.171500 11.441345 9.836970 5.176781 56.932023 0.415755 28.950125 -97.938050 53.254827 -71.419685 -1.499135 4.656029 -81.787994 15.358089 4.827163 0.518200 7.125000 0.000000 0.000000 27.752300 -26.711000 13.913300 
-0.088447 17.414055 -1.249881 175.431814 1.367280 -159.408240 5.462532 -1.271885 -1.008178 -4.990652 -26.338134 -68.561142 5.026623 19.676759 46.802304 -0.137469 6.014286 13.695198 1.191700 -6.927300 -19.500000 -4.535916 -0.546771 0.622671 29.991875 17.625246 -4.850401 -3.297206 -12.642639 37.641678 1.919523 -9.113492 5.994814 -0.722700 -5.432300 15.145800 -8.928736 7.240488 -3.300495 -1.026303 8.618549 -6.829481 -1.248927 4.312039 -4.503739 -6.057875 -6.988238 -22.712909 8.015394 -9.957198 12.737845 1.625800 -4.525800 14.792000 -10.709227 -7.102071 2.632505 -72.517261 51.416670 23.371995 55.890682 -51.848183 -30.603194 -1.037692 -4.175941 -69.825863 -24.623205 13.846365 -5.453900 -7.125000 0.000000 0.000000 -40.835300 41.054200 4.946200 11.536615 9.732199 5.251016 55.672496 0.293342 28.356059 -100.317211 53.224318 -73.887641 -1.575858 4.948070 -86.353905 17.187590 4.869964 0.656100 7.125000 0.000000 0.000000 28.591800 -26.343500 14.746200 
